<svg id="_1170px_grid" data-name="1170px grid" xmlns="http://www.w3.org/2000/svg" viewBox="0 0 45.07 42.37"><defs><style>.cls-1{fill:#fff;}</style></defs><title>Artboard 10 copy 2</title><path class="cls-1" d="M4.3,38.6a.86.86,0,0,1-.8-1.18l2.38-5.85c1-2.51,2.83-5.84,6.8-6h3.75c4,.16,5.79,3.49,6.81,6l.3.75,6.37-5.88a.86.86,0,0,1,1.22,0,.87.87,0,0,1-.05,1.22L23.8,34.43a.87.87,0,0,1-.77.21.85.85,0,0,1-.61-.52l-.78-1.9c-1.22-3-2.64-4.54-4.63-4.86l-.5,2.41.67,6.08a.84.84,0,0,1-.31.77l-1.51,1.21a.87.87,0,0,1-.54.19h-.53a.87.87,0,0,1-.54-.19l-1.51-1.21a.87.87,0,0,1-.31-.77l.67-6.08-.5-2.41c-2,.33-3.4,1.83-4.63,4.86L5.1,38.06A.86.86,0,0,1,4.3,38.6Zm9.39-3,.87.7.86-.7-.55-5h-.63Zm.48-6.7h.77l.33-1.58H13.84Zm26.6,7H27.71a.86.86,0,0,1,0-1.72h12.2V9.39H5.84V27.48a.86.86,0,0,1-1.72,0v-19A.86.86,0,0,1,5,7.67H40.77a.85.85,0,0,1,.86.86V35A.86.86,0,0,1,40.77,35.86Zm-22-4.07a.87.87,0,0,1-.86-.86v-.12a.86.86,0,1,1,1.72,0v.12A.86.86,0,0,1,18.81,31.79ZM14.56,24a4.73,4.73,0,0,1,0-9.46,4.53,4.53,0,0,1,.91.09h0a4.73,4.73,0,0,1-1,9.36ZM13,16.67a3,3,0,1,0,2.68-.19,4.8,4.8,0,0,1-1.46,1.27.86.86,0,0,1-1.17-.33A.83.83,0,0,1,13,16.67Zm23.09,1.58H31.7a.86.86,0,0,1,0-1.72h4.41a.86.86,0,0,1,0,1.72Zm-8.4,0H26.07a.86.86,0,0,1,0-1.72h1.64a.86.86,0,0,1,0,1.72Zm8.4-3.59H27.29a.86.86,0,1,1,0-1.72h8.82a.86.86,0,0,1,0,1.72ZM27.29,5.49H18.47a.86.86,0,1,1,0-1.72h8.82a.86.86,0,0,1,0,1.72Z"/></svg>