<svg id="_1170px_grid" data-name="1170px grid" xmlns="http://www.w3.org/2000/svg" viewBox="0 0 45.07 42.37"><defs><style>.cls-1{fill:#fff;}</style></defs><title>Artboard 10</title><path class="cls-1" d="M6,37.58H39a1.24,1.24,0,0,0,1.25-1.25v-28A1.24,1.24,0,0,0,39,7.11H32.82V6a1.25,1.25,0,1,0-2.5,0V7.11H15V6a1.26,1.26,0,1,0-2.51,0V7.11H6A1.24,1.24,0,0,0,4.79,8.36v28A1.25,1.25,0,0,0,6,37.58Zm1.26-28h5.16v.67a1.26,1.26,0,1,0,2.51,0V9.61H30.32v.67a1.25,1.25,0,1,0,2.5,0V9.61h5v3.24H7.3Zm0,5.75H37.78V35.11H7.3Z"/><path class="cls-1" d="M31.57,21.11h-18a1.25,1.25,0,0,0,0,2.5h18a1.25,1.25,0,0,0,0-2.5Z"/><path class="cls-1" d="M22.55,27.16h-9a1.26,1.26,0,0,0,0,2.51h9a1.26,1.26,0,0,0,0-2.51Z"/></svg>