<svg viewBox="0 0 45.07 42.37" xmlns="http://www.w3.org/2000/svg"><path d="m4.3 38.6a.86.86 0 0 1 -.8-1.18l2.38-5.85c1-2.51 2.83-5.84 6.8-6h3.75c4 .16 5.79 3.49 6.81 6l.3.75 6.37-5.88a.86.86 0 0 1 1.22 0 .87.87 0 0 1 -.05 1.22l-7.28 6.77a.87.87 0 0 1 -.77.21.85.85 0 0 1 -.61-.52l-.78-1.9c-1.22-3-2.64-4.54-4.63-4.86l-.5 2.41.67 6.08a.84.84 0 0 1 -.31.77l-1.51 1.21a.87.87 0 0 1 -.54.19h-.53a.87.87 0 0 1 -.54-.19l-1.51-1.21a.87.87 0 0 1 -.31-.77l.67-6.08-.5-2.41c-2 .33-3.4 1.83-4.63 4.86l-2.37 5.84a.86.86 0 0 1 -.8.54zm9.39-3 .87.7.86-.7-.55-5h-.63zm.48-6.7h.77l.33-1.58h-1.43zm26.6 7h-13.06a.86.86 0 0 1 0-1.72h12.2v-24.79h-34.07v18.09a.86.86 0 0 1 -1.72 0v-19a.86.86 0 0 1 .88-.81h35.77a.85.85 0 0 1 .86.86v26.47a.86.86 0 0 1 -.86.86zm-22-4.07a.87.87 0 0 1 -.86-.86v-.12a.86.86 0 1 1 1.72 0v.12a.86.86 0 0 1 -.82.82zm-4.21-7.83a4.73 4.73 0 0 1 0-9.46 4.53 4.53 0 0 1 .91.09 4.73 4.73 0 0 1 -1 9.36zm-1.56-7.33a3 3 0 1 0 2.68-.19 4.8 4.8 0 0 1 -1.46 1.27.86.86 0 0 1 -1.17-.33.83.83 0 0 1 -.05-.75zm23.09 1.58h-4.39a.86.86 0 0 1 0-1.72h4.41a.86.86 0 0 1 0 1.72zm-8.4 0h-1.62a.86.86 0 0 1 0-1.72h1.64a.86.86 0 0 1 0 1.72zm8.4-3.59h-8.8a.86.86 0 1 1 0-1.72h8.82a.86.86 0 0 1 0 1.72zm-8.8-9.17h-8.82a.86.86 0 1 1 0-1.72h8.82a.86.86 0 0 1 0 1.72z" fill="#fff"/></svg>