<svg viewBox="0 0 45.07 42.37" xmlns="http://www.w3.org/2000/svg"><g fill="#fff"><path d="m6 37.58h33a1.24 1.24 0 0 0 1.25-1.25v-28a1.24 1.24 0 0 0 -1.25-1.22h-6.18v-1.11a1.25 1.25 0 1 0 -2.5 0v1.11h-15.32v-1.11a1.26 1.26 0 1 0 -2.51 0v1.11h-6.49a1.24 1.24 0 0 0 -1.21 1.25v28a1.25 1.25 0 0 0 1.21 1.22zm1.26-28h5.16v.67a1.26 1.26 0 1 0 2.51 0v-.64h15.39v.67a1.25 1.25 0 1 0 2.5 0v-.67h5v3.24h-30.52zm0 5.75h30.52v19.78h-30.48z"/><path d="m31.57 21.11h-18a1.25 1.25 0 0 0 0 2.5h18a1.25 1.25 0 0 0 0-2.5z"/><path d="m22.55 27.16h-9a1.26 1.26 0 0 0 0 2.51h9a1.26 1.26 0 0 0 0-2.51z"/></g></svg>