<svg enable-background="new 0 0 144.1 73.1" viewBox="0 0 144.1 73.1" xmlns="http://www.w3.org/2000/svg" xmlns:xlink="http://www.w3.org/1999/xlink"><radialGradient id="a" cx="-208.875" cy="169.6181" gradientTransform="matrix(.5469 0 0 .09612685 137.183 50.7898)" gradientUnits="userSpaceOnUse" r="41.9417"><stop offset="0" stop-color="#4d5858" stop-opacity=".3"/><stop offset=".1139" stop-color="#586263" stop-opacity=".2658"/><stop offset=".3134" stop-color="#757d7e" stop-opacity=".206"/><stop offset=".575" stop-color="#a5aaaa" stop-opacity=".1275"/><stop offset=".8853" stop-color="#e5e7e7" stop-opacity=".03442"/><stop offset="1" stop-color="#fff" stop-opacity="0"/></radialGradient><path d="m22.9 62.3c-36.2 0-19.2-60.6 0-60.6s36.3 60.6 0 60.6z" fill="#ffca00"/><path clip-rule="evenodd" d="m29.6 10.7c.2.1-2.1 7.5-2.1 9.1s1.7 2.6 2.2 4.6c.1 1.6-.8 2.8-.6 3.9.3 1.6 2.7 1.1 2.9 2.5-.2 1.8-1.3 2.8-1.6 4.4.6.2 1 .2 1.1.3.1.2-4.9 7.3-4.4 8.9-1-1.2.4-2.7 1-3.9.7-1.3 1.5-2.5 1.8-3.9-.1-.4-1 .1-1-.5.3-1.9 1.7-3.9 1.5-5 .1-.5-2.2-2.2-3.9-3.3-1.2-.7-1.7-1.4-6-1.2-.3 0-1.2-.3-1.1-.9 1.1 1.6 3-.4 4.9 0 1.5.3 3.2 1.2 3.7 1.1.3-.5.9-1 .6-2.3-.3-1.1-1.8-1.8-2.1-3.4-.4-1.9 1-5.5 1-5.5s1.9-5 2.1-4.9z" fill="#4f585c" fill-rule="evenodd"/><path d="m44.2 67.1c0 2.6-9.5 4.7-21.3 4.7-11.7 0-21.3-2.1-21.3-4.7s9.5-4.7 21.3-4.7 21.3 2.1 21.3 4.7z" fill="url(#a)"/><g fill="#4f585c"><path d="m57.3 41.6v-28.2h20v5.3h-14v5.9h13.7v5.3h-13.6v6.4h14v5.3z"/><path d="m82.7 27.5c0-8.9 6.8-14.6 15.1-14.6 5.8 0 9.5 3 11.6 6.3l-5 2.7c-1.3-2-3.7-3.7-6.7-3.7-5.2 0-8.9 3.9-8.9 9.3 0 5.3 3.7 9.3 8.9 9.3 2.5 0 4.8-1.1 6-2.2v-3.4h-7.5v-5.2h13.5v10.8c-2.9 3.2-6.9 5.3-12 5.3-8.2 0-15-5.7-15-14.6z"/><path d="m115.3 27.5c0-8.9 6.8-14.6 15.1-14.6 5.8 0 9.5 3 11.6 6.3l-4.9 2.7c-1.3-2-3.7-3.7-6.7-3.7-5.2 0-8.9 3.9-8.9 9.3 0 5.3 3.7 9.3 8.9 9.3 2.5 0 4.8-1.1 6-2.2v-3.4h-7.5v-5.2h13.5v10.8c-2.9 3.2-6.9 5.3-12 5.3-8.3 0-15.1-5.7-15.1-14.6z"/></g><g fill="#858586"><path d="m76.7 57v-7.2h-2.6v-1.7h7.1v1.7h-2.6v7.2z"/><path d="m88.5 57v-8.9h6.3v1.7h-4.4v1.9h4.3v1.7h-4.3v2h4.4v1.6z"/><path d="m101.9 52.6c0-2.7 2.1-4.6 4.7-4.6 2 0 3.1 1.1 3.7 2.2l-1.6.8c-.4-.7-1.2-1.3-2.1-1.3-1.6 0-2.8 1.2-2.8 2.9s1.2 2.9 2.8 2.9c.9 0 1.7-.6 2.1-1.3l1.6.8c-.6 1.1-1.8 2.2-3.7 2.2-2.6 0-4.7-1.9-4.7-4.6z"/><path d="m123.7 57v-3.7h-4.2v3.7h-1.9v-8.9h1.9v3.5h4.2v-3.5h1.9v8.9z"/></g></svg>