<svg viewBox="0 0 328 328" xmlns="http://www.w3.org/2000/svg"><path d="m0 0h328v328h-328z" fill="#1d1d1b"/><g fill="none" opacity=".1"><path d="m0 0h328v328h-328z"/><g stroke="#000" stroke-miterlimit="10" stroke-width="4"><path d="m250.18 214.41-78.85 78.84"/><path d="m285.14 209.96-76.43 76.43"/><path d="m305.96 215.65-123.61 123.62"/><path d="m314.19 234.94-142.08 142.09"/><path d="m323.93 283.35-89.29 89.3"/><path d="m328.02 302.72-111.22 111.22"/><path d="m358.4 300.04-100 100.01"/><path d="m330.36 246.29-139.6 139.6"/><path d="m86.18 214.41-78.85 78.84"/><path d="m121.14 209.96-76.43 76.43"/><path d="m141.96 215.65-123.61 123.62"/><path d="m150.19 234.94-142.08 142.09"/><path d="m159.93 283.35-89.29 89.3"/><path d="m164.02 302.72-111.22 111.22"/><path d="m194.4 300.04-100 100.01"/><path d="m166.36 246.29-139.6 139.6"/><path d="m.02 302.72-111.22 111.22"/><path d="m30.4 300.04-100 100.01"/><path d="m2.36 246.29-139.6 139.6"/><path d="m332.18 50.41-78.85 78.84"/><path d="m367.14 45.96-76.43 76.43"/><path d="m387.96 51.65-123.61 123.62"/><path d="m396.19 70.94-142.08 142.09"/><path d="m405.93 119.35-89.29 89.3"/><path d="m410.02 138.72-111.22 111.22"/><path d="m420.43 183.35-94.11 94.1"/><path d="m412.36 82.29-139.6 139.6"/><path d="m168.18 50.41-78.85 78.84"/><path d="m203.14 45.96-76.43 76.43"/><path d="m223.96 51.65-123.61 123.62"/><path d="m232.19 70.94-142.08 142.09"/><path d="m241.93 119.35-89.29 89.3"/><path d="m246.02 138.72-111.22 111.22"/><path d="m276.4 136.04-100 100.01"/><path d="m256.43 183.35-94.11 94.1"/><path d="m248.36 82.29-139.6 139.6"/><path d="m4.18 50.41-78.85 78.84"/><path d="m39.14 45.96-76.43 76.43"/><path d="m59.96 51.65-123.61 123.62"/><path d="m68.19 70.94-142.08 142.09"/><path d="m77.93 119.35-89.29 89.3"/><path d="m82.02 138.72-111.22 111.22"/><path d="m112.4 136.04-100 100.01"/><path d="m92.43 183.35-94.11 94.1"/><path d="m84.36 82.29-139.6 139.6"/><path d="m305.96-112.35-123.61 123.62"/><path d="m314.19-93.06-142.08 142.09"/><path d="m323.93-44.65-89.29 89.3"/><path d="m328.02-25.28-111.22 111.22"/><path d="m358.4-27.96-100 100.01"/><path d="m338.43 19.35-94.11 94.1"/><path d="m330.36-81.71-139.6 139.6"/><path d="m141.96-112.35-123.61 123.62"/><path d="m150.19-93.06-142.08 142.09"/><path d="m159.93-44.65-89.29 89.3"/><path d="m164.02-25.28-111.22 111.22"/><path d="m194.4-27.96-100 100.01"/><path d="m174.43 19.35-94.11 94.1"/><path d="m166.36-81.71-139.6 139.6"/><path d="m.02-25.28-111.22 111.22"/><path d="m30.4-27.96-100 100.01"/><path d="m10.43 19.35-94.11 94.1"/><path d="m2.36-81.71-139.6 139.6"/></g></g></svg>