<svg viewBox="0 0 103.96 105.11" xmlns="http://www.w3.org/2000/svg"><g fill="#3e4646"><path d="m41.05 31.46h38.31a1.63 1.63 0 0 0 0-3.25h-38.31a1.63 1.63 0 1 0 0 3.25z"/><path d="m41.05 55.84h38.31a1.63 1.63 0 0 0 0-3.25h-38.31a1.63 1.63 0 1 0 0 3.25z"/><path d="m41.05 80.22h38.31a1.63 1.63 0 0 0 0-3.25h-38.31a1.63 1.63 0 1 0 0 3.25z"/><path d="m98.86 3.83h-94.26a1.63 1.63 0 0 0 -1.6 1.63v94.26a1.63 1.63 0 0 0 1.63 1.63h94.23a1.62 1.62 0 0 0 1.62-1.63v-94.26a1.62 1.62 0 0 0 -1.62-1.63zm-1.63 94.27h-91v-91h91z"/><path d="m23.29 33.86 3.94-2.08 3.95 2.08-.75-4.4 3.19-3.11-4.41-.64-1.98-4-1.97 4-4.41.64 3.19 3.11z"/><path d="m23.29 58.37 3.94-2.07 3.95 2.07-.75-4.39 3.19-3.12-4.41-.64-1.98-4-1.97 4-4.41.64 3.19 3.12z"/><path d="m23.29 83.47 3.94-2.08 3.95 2.08-.75-4.39 3.19-3.12-4.41-.64-1.98-4-1.97 4-4.41.64 3.19 3.12z"/></g></svg>