<svg id="_1170px_grid" data-name="1170px grid" xmlns="http://www.w3.org/2000/svg" viewBox="0 0 103.96 105.11"><defs><style>.cls-1{fill:#3e4646;}</style></defs><title>Artboard 2</title><path class="cls-1" d="M41.05,31.46H79.36a1.63,1.63,0,0,0,0-3.25H41.05a1.63,1.63,0,1,0,0,3.25Z"/><path class="cls-1" d="M41.05,55.84H79.36a1.63,1.63,0,0,0,0-3.25H41.05a1.63,1.63,0,1,0,0,3.25Z"/><path class="cls-1" d="M41.05,80.22H79.36a1.63,1.63,0,0,0,0-3.25H41.05a1.63,1.63,0,1,0,0,3.25Z"/><path class="cls-1" d="M98.86,3.83H4.6A1.63,1.63,0,0,0,3,5.46V99.72a1.63,1.63,0,0,0,1.63,1.63H98.86a1.62,1.62,0,0,0,1.62-1.63V5.46A1.62,1.62,0,0,0,98.86,3.83ZM97.23,98.1h-91v-91h91Z"/><polygon class="cls-1" points="23.29 33.86 27.23 31.78 31.18 33.86 30.43 29.46 33.62 26.35 29.21 25.71 27.23 21.71 25.26 25.71 20.85 26.35 24.04 29.46 23.29 33.86"/><polygon class="cls-1" points="23.29 58.37 27.23 56.3 31.18 58.37 30.43 53.98 33.62 50.86 29.21 50.22 27.23 46.22 25.26 50.22 20.85 50.86 24.04 53.98 23.29 58.37"/><polygon class="cls-1" points="23.29 83.47 27.23 81.39 31.18 83.47 30.43 79.08 33.62 75.96 29.21 75.32 27.23 71.32 25.26 75.32 20.85 75.96 24.04 79.08 23.29 83.47"/></svg>