<?xml version="1.0" encoding="utf-8"?>
<!-- Generator: Adobe Illustrator 22.1.0, SVG Export Plug-In . SVG Version: 6.00 Build 0)  -->
<svg version="1.1" id="_1170px_grid" xmlns="http://www.w3.org/2000/svg" xmlns:xlink="http://www.w3.org/1999/xlink" x="0px"
	 y="0px" viewBox="0 0 89 89" style="enable-background:new 0 0 89 89;" xml:space="preserve">
<style type="text/css">
	.st0{fill:#FFC500;}
	.st1{enable-background:new    ;}
	.st2{fill:#3E4646;}
</style>
<title>Artboard 6 copy 2</title>
<circle class="st0" cx="44.5" cy="44.5" r="42.3"/>
<g class="st1">
	<path class="st2" d="M40.5,40.2h3.9c1.7,0,2.9-0.4,3.7-1.3c0.8-0.9,1.2-2.1,1.2-3.6c0-1.4-0.4-2.5-1.2-3.4s-2-1.3-3.5-1.3
		c-1.3,0-2.4,0.4-3.3,1.2c-0.9,0.8-1.3,1.8-1.3,3h-6.8l0-0.1c-0.1-2.7,1-5,3.1-6.8s4.9-2.7,8.1-2.7c3.6,0,6.5,0.9,8.6,2.6
		s3.2,4.2,3.2,7.4c0,1.5-0.5,3-1.4,4.3c-1,1.4-2.3,2.4-4,3.2c1.9,0.7,3.4,1.7,4.4,3.2s1.5,3.1,1.5,5c0,3.2-1.2,5.7-3.5,7.5
		c-2.3,1.8-5.3,2.7-8.9,2.7c-3.2,0-6-0.9-8.4-2.6c-2.3-1.7-3.4-4.1-3.4-7.3l0-0.1h6.8c0,1.3,0.5,2.4,1.4,3.3s2.2,1.3,3.6,1.3
		c1.6,0,2.9-0.4,3.8-1.3c0.9-0.9,1.4-2.1,1.4-3.6c0-1.8-0.5-3.2-1.4-4c-0.9-0.9-2.3-1.3-4.1-1.3h-3.9V40.2z"/>
</g>
</svg>
