<svg enable-background="new 0 0 89 89" viewBox="0 0 89 89" xmlns="http://www.w3.org/2000/svg"><circle cx="44.5" cy="44.5" fill="#ffc500" r="42.3"/><path d="m40.5 40.2h3.9c1.7 0 2.9-.4 3.7-1.3s1.2-2.1 1.2-3.6c0-1.4-.4-2.5-1.2-3.4s-2-1.3-3.5-1.3c-1.3 0-2.4.4-3.3 1.2s-1.3 1.8-1.3 3h-6.8v-.1c-.1-2.7 1-5 3.1-6.8s4.9-2.7 8.1-2.7c3.6 0 6.5.9 8.6 2.6s3.2 4.2 3.2 7.4c0 1.5-.5 3-1.4 4.3-1 1.4-2.3 2.4-4 3.2 1.9.7 3.4 1.7 4.4 3.2s1.5 3.1 1.5 5c0 3.2-1.2 5.7-3.5 7.5s-5.3 2.7-8.9 2.7c-3.2 0-6-.9-8.4-2.6-2.3-1.7-3.4-4.1-3.4-7.3v-.1h6.8c0 1.3.5 2.4 1.4 3.3s2.2 1.3 3.6 1.3c1.6 0 2.9-.4 3.8-1.3s1.4-2.1 1.4-3.6c0-1.8-.5-3.2-1.4-4-.9-.9-2.3-1.3-4.1-1.3h-3.9v-5.3z" fill="#3e4646"/></svg>