<?xml version="1.0" encoding="utf-8"?>
<!-- Generator: Adobe Illustrator 22.1.0, SVG Export Plug-In . SVG Version: 6.00 Build 0)  -->
<svg version="1.1" id="_1170px_grid" xmlns="http://www.w3.org/2000/svg" xmlns:xlink="http://www.w3.org/1999/xlink" x="0px"
	 y="0px" viewBox="0 0 89 89" style="enable-background:new 0 0 89 89;" xml:space="preserve">
<style type="text/css">
	.st0{fill:#FFC500;}
	.st1{enable-background:new    ;}
	.st2{fill:#3E4646;}
</style>
<title>Artboard 6 copy</title>
<circle class="st0" cx="44.5" cy="44.5" r="42.3"/>
<g class="st1">
	<path class="st2" d="M32.9,60.6V56l11.3-12.1c1.6-1.9,2.8-3.4,3.5-4.7c0.7-1.3,1-2.5,1-3.6c0-1.5-0.4-2.7-1.2-3.6
		c-0.8-0.9-1.9-1.4-3.4-1.4c-1.6,0-2.8,0.5-3.7,1.6c-0.8,1.1-1.3,2.6-1.3,4.4h-6.8l0-0.1c-0.1-3.1,1-5.8,3.1-8
		c2.1-2.2,5-3.3,8.7-3.3c3.6,0,6.4,0.9,8.5,2.8c2.1,1.9,3.1,4.4,3.1,7.5c0,2.1-0.6,4.1-1.7,5.8s-3.1,4.1-5.8,7L42,55.1l0,0.1h9.1
		l0.3-3.5h5.3v8.8H32.9z"/>
</g>
</svg>
